<svg xmlns="http://www.w3.org/2000/svg" viewBox="0 0 400 600" width="400" height="600">
<rect width="400" height="600" fill="#0f172a"/>

<!-- Header (cor do padrão) -->
<rect x="0" y="0" width="400" height="60" fill="#f59e0b"/>
<text x="20" y="25" font-size="14" font-weight="bold" fill="#0f172a" font-family="sans-serif">REVERSE STEP-UP</text>
<text x="20" y="48" font-size="10" fill="#0f172a" opacity="0.7" font-family="sans-serif">reverse-step-up-step-1</text>

<!-- Step label -->
<circle cx="370" cy="30" r="22" fill="#0f172a"/>
<text x="370" y="37" font-size="22" font-weight="bold" fill="#f59e0b" text-anchor="middle" font-family="sans-serif">1</text>

<!-- Vista label -->
<rect x="20" y="80" width="80" height="20" rx="4" fill="#1e293b" stroke="#f59e0b" stroke-width="1"/>
<text x="60" y="94" font-size="10" font-weight="bold" fill="#f59e0b" text-anchor="middle" font-family="sans-serif">FRONTAL</text>

<!-- Title do step -->
<text x="115" y="95" font-size="14" font-weight="bold" fill="#cbd5e1" font-family="sans-serif">Setup: De Costas para o Box + KBs n</text>

<!-- Corpo do avatar -->
<g transform="translate(0, 50)">
<line x1="200" y1="130" x2="200" y2="530" stroke="#475569" stroke-width="1" stroke-dasharray="6,4" opacity="0.6"/><circle cx="200" cy="170" r="22" fill="#cbd5e1" stroke="#0f172a" stroke-width="1.5"/><line x1="200" y1="192" x2="200" y2="365" stroke="#cbd5e1" stroke-width="14" stroke-linecap="round"/><circle cx="200" cy="380" r="8" fill="#0f172a" stroke="#fbbf24" stroke-width="2.5"/><circle cx="200" cy="380" r="5.5" fill="#fbbf24" opacity="0.7"/><line x1="198" y1="200" x2="175" y2="230" stroke="#cbd5e1" stroke-width="7" stroke-linecap="round"/><line x1="202" y1="200" x2="225" y2="230" stroke="#cbd5e1" stroke-width="7" stroke-linecap="round"/><line x1="175" y1="230" x2="175" y2="265" stroke="#cbd5e1" stroke-width="7" stroke-linecap="round"/><line x1="225" y1="230" x2="225" y2="265" stroke="#cbd5e1" stroke-width="7" stroke-linecap="round"/><circle cx="175" cy="265" r="5" fill="#0f172a" stroke="#fbbf24" stroke-width="2.5"/><circle cx="175" cy="265" r="2.5" fill="#fbbf24" opacity="0.7"/><circle cx="225" cy="265" r="5" fill="#0f172a" stroke="#fbbf24" stroke-width="2.5"/><circle cx="225" cy="265" r="2.5" fill="#fbbf24" opacity="0.7"/><circle cx="200" cy="275" r="16.2" fill="#a8a29e" stroke="#1c1917" stroke-width="1.5"/><path d="M 189.2 261.5 Q 200 248.0 210.8 261.5" fill="none" stroke="#57534e" stroke-width="2.25"/><rect x="191.9" y="252.5" width="16.2" height="10.8" rx="3.6" fill="none" stroke="#57534e" stroke-width="1.35"/><line x1="175" y1="380" x2="170" y2="450" stroke="#cbd5e1" stroke-width="10" stroke-linecap="round"/><line x1="225" y1="380" x2="230" y2="450" stroke="#cbd5e1" stroke-width="10" stroke-linecap="round"/><circle cx="170" cy="450" r="6" fill="#0f172a" stroke="#fbbf24" stroke-width="2.5"/><circle cx="170" cy="450" r="3.5" fill="#fbbf24" opacity="0.7"/><circle cx="230" cy="450" r="6" fill="#0f172a" stroke="#fbbf24" stroke-width="2.5"/><circle cx="230" cy="450" r="3.5" fill="#fbbf24" opacity="0.7"/><line x1="170" y1="450" x2="170" y2="515" stroke="#cbd5e1" stroke-width="9" stroke-linecap="round"/><line x1="230" y1="450" x2="230" y2="515" stroke="#cbd5e1" stroke-width="9" stroke-linecap="round"/><circle cx="170" cy="515" r="5" fill="#0f172a" stroke="#fbbf24" stroke-width="2.5"/><circle cx="170" cy="515" r="2.5" fill="#fbbf24" opacity="0.7"/><circle cx="230" cy="515" r="5" fill="#0f172a" stroke="#fbbf24" stroke-width="2.5"/><circle cx="230" cy="515" r="2.5" fill="#fbbf24" opacity="0.7"/><line x1="150" y1="525" x2="250" y2="525" stroke="#cbd5e1" stroke-width="3" stroke-linecap="round"/><rect x="246.725" y="161" width="76.55000000000001" height="15" rx="4" fill="#1e293b" opacity="0.95"/><text x="285" y="173" font-size="11" fill="#f59e0b" text-anchor="middle" font-family="sans-serif" font-weight="500">AGACHAMENTO</text>
</g>

<!-- Footer label -->
<rect x="0" y="560" width="400" height="40" fill="#f59e0b" opacity="0.15"/>
<text x="20" y="578" font-size="11" font-weight="bold" fill="#f59e0b" font-family="sans-serif">▶ Anatomia</text>
<text x="20" y="592" font-size="10" fill="#94a3b8" font-family="sans-serif">• Articulações em amarelo • KB com alça • Vista FRONTAL</text>

<!-- Tag PASSO N no canto -->
<g transform="translate(330, 80)">
<rect x="0" y="0" width="50" height="22" rx="11" fill="#f59e0b"/>
<text x="25" y="15" font-size="11" font-weight="bold" fill="#0f172a" text-anchor="middle" font-family="sans-serif">PASSO 1</text>
</g>
</svg>