<svg xmlns="http://www.w3.org/2000/svg" viewBox="0 0 400 600" width="400" height="600">
<rect width="400" height="600" fill="#0f172a"/>

<!-- Header (cor do padrão) -->
<rect x="0" y="0" width="400" height="60" fill="#a855f7"/>
<text x="20" y="25" font-size="14" font-weight="bold" fill="#0f172a" font-family="sans-serif">SNATCH 1H (HARDSTYLE)</text>
<text x="20" y="48" font-size="10" fill="#0f172a" opacity="0.7" font-family="sans-serif">snatch-1h-step-4</text>

<!-- Step label -->
<circle cx="370" cy="30" r="22" fill="#0f172a"/>
<text x="370" y="37" font-size="22" font-weight="bold" fill="#a855f7" text-anchor="middle" font-family="sans-serif">4</text>

<!-- Vista label -->
<rect x="20" y="80" width="80" height="20" rx="4" fill="#1e293b" stroke="#a855f7" stroke-width="1"/>
<text x="60" y="94" font-size="10" font-weight="bold" fill="#a855f7" text-anchor="middle" font-family="sans-serif">FRONTAL</text>

<!-- Title do step -->
<text x="115" y="95" font-size="14" font-weight="bold" fill="#cbd5e1" font-family="sans-serif">Pull (Descida)</text>

<!-- Corpo do avatar -->
<g transform="translate(0, 50)">
<line x1="200" y1="130" x2="200" y2="530" stroke="#475569" stroke-width="1" stroke-dasharray="6,4" opacity="0.6"/><circle cx="200" cy="230" r="22" fill="#cbd5e1" stroke="#0f172a" stroke-width="1.5"/><line x1="200" y1="252" x2="200" y2="410" stroke="#cbd5e1" stroke-width="14" stroke-linecap="round"/><circle cx="200" cy="420" r="8" fill="#0f172a" stroke="#fbbf24" stroke-width="2.5"/><circle cx="200" cy="420" r="5.5" fill="#fbbf24" opacity="0.7"/><line x1="202" y1="260" x2="225" y2="260" stroke="#cbd5e1" stroke-width="8" stroke-linecap="round"/><line x1="225" y1="260" x2="225" y2="215" stroke="#cbd5e1" stroke-width="8" stroke-linecap="round"/><circle cx="225" cy="260" r="5" fill="#0f172a" stroke="#fbbf24" stroke-width="2.5"/><circle cx="225" cy="260" r="2.5" fill="#fbbf24" opacity="0.7"/><circle cx="225" cy="180" r="17.099999999999998" fill="#a8a29e" stroke="#1c1917" stroke-width="1.5"/><path d="M 213.6 165.75 Q 225 151.5 236.4 165.75" fill="none" stroke="#57534e" stroke-width="2.375"/><rect x="216.45" y="156.25" width="17.099999999999998" height="11.399999999999999" rx="3.8" fill="none" stroke="#57534e" stroke-width="1.4249999999999998"/><circle cx="219.3" cy="174.3" r="2.8499999999999996" fill="#fbbf24" opacity="0.6"/><line x1="198" y1="260" x2="180" y2="320" stroke="#cbd5e1" stroke-width="7" stroke-linecap="round"/><line x1="180" y1="320" x2="180" y2="380" stroke="#cbd5e1" stroke-width="7" stroke-linecap="round"/><circle cx="180" cy="320" r="5" fill="#0f172a" stroke="#fbbf24" stroke-width="2.5"/><circle cx="180" cy="320" r="2.5" fill="#fbbf24" opacity="0.7"/><circle cx="180" cy="380" r="5" fill="#0f172a" stroke="#fbbf24" stroke-width="2.5"/><circle cx="180" cy="380" r="2.5" fill="#fbbf24" opacity="0.7"/><line x1="175" y1="420" x2="170" y2="490" stroke="#cbd5e1" stroke-width="10" stroke-linecap="round"/><line x1="225" y1="420" x2="230" y2="490" stroke="#cbd5e1" stroke-width="10" stroke-linecap="round"/><circle cx="170" cy="490" r="6" fill="#0f172a" stroke="#fbbf24" stroke-width="2.5"/><circle cx="170" cy="490" r="3.5" fill="#fbbf24" opacity="0.7"/><circle cx="230" cy="490" r="6" fill="#0f172a" stroke="#fbbf24" stroke-width="2.5"/><circle cx="230" cy="490" r="3.5" fill="#fbbf24" opacity="0.7"/><line x1="170" y1="490" x2="170" y2="555" stroke="#cbd5e1" stroke-width="9" stroke-linecap="round"/><line x1="230" y1="490" x2="230" y2="555" stroke="#cbd5e1" stroke-width="9" stroke-linecap="round"/><circle cx="170" cy="555" r="5" fill="#0f172a" stroke="#fbbf24" stroke-width="2.5"/><circle cx="170" cy="555" r="2.5" fill="#fbbf24" opacity="0.7"/><circle cx="230" cy="555" r="5" fill="#0f172a" stroke="#fbbf24" stroke-width="2.5"/><circle cx="230" cy="555" r="2.5" fill="#fbbf24" opacity="0.7"/><line x1="150" y1="565" x2="250" y2="565" stroke="#cbd5e1" stroke-width="3" stroke-linecap="round"/><rect x="152.65" y="131" width="94.7" height="15" rx="4" fill="#1e293b" opacity="0.95"/><text x="200" y="143" font-size="11" fill="#a855f7" text-anchor="middle" font-family="sans-serif" font-weight="500">LOCKOUT — 180°</text><line x1="225" y1="280" x2="225" y2="210" stroke="#a855f7" stroke-width="1.5" stroke-dasharray="4,3"/>
</g>

<!-- Footer label -->
<rect x="0" y="560" width="400" height="40" fill="#a855f7" opacity="0.15"/>
<text x="20" y="578" font-size="11" font-weight="bold" fill="#a855f7" font-family="sans-serif">▶ Anatomia</text>
<text x="20" y="592" font-size="10" fill="#94a3b8" font-family="sans-serif">• Articulações em amarelo • KB com alça • Vista FRONTAL</text>

<!-- Tag PASSO N no canto -->
<g transform="translate(330, 80)">
<rect x="0" y="0" width="50" height="22" rx="11" fill="#a855f7"/>
<text x="25" y="15" font-size="11" font-weight="bold" fill="#0f172a" text-anchor="middle" font-family="sans-serif">PASSO 4</text>
</g>
</svg>